<?xml version="1.0" encoding="UTF-8" standalone="no"?>
<svg
   width="100"
   height="100"
   viewBox="0 0 100 100"
   version="1.1"
   id="svg4"
   sodipodi:docname="baum.svg"
   inkscape:version="1.3.2 (091e20e, 2023-11-25, custom)"
   xmlns:inkscape="http://www.inkscape.org/namespaces/inkscape"
   xmlns:sodipodi="http://sodipodi.sourceforge.net/DTD/sodipodi-0.dtd"
   xmlns="http://www.w3.org/2000/svg"
   xmlns:svg="http://www.w3.org/2000/svg">
  <defs
     id="defs4" />
  <sodipodi:namedview
     id="namedview4"
     pagecolor="#ffffff"
     bordercolor="#000000"
     borderopacity="0.25"
     inkscape:showpageshadow="2"
     inkscape:pageopacity="0.0"
     inkscape:pagecheckerboard="0"
     inkscape:deskcolor="#d1d1d1"
     inkscape:zoom="12.55"
     inkscape:cx="49.960159"
     inkscape:cy="50"
     inkscape:window-width="2560"
     inkscape:window-height="1511"
     inkscape:window-x="-9"
     inkscape:window-y="-9"
     inkscape:window-maximized="1"
     inkscape:current-layer="svg4" />
  <path
     d="m 50,5 15,15 30.318725,-1.414343 -15,35 9.760956,33.565737 L 65.63745,81.673307 50,95 33.645418,82.47012 10,85 18.565737,47.689243 5,15 32.211155,18.565737 Z"
     fill="#0a2915"
     stroke="#051f0e"
     stroke-width="1"
     stroke-linejoin="round"
     id="path1"
     sodipodi:nodetypes="ccccccccccccc" />
  <path
     d="M 50,12 58,35 84.986183,21.442386 70,48 91.211221,64.469655 65,65 41.280431,82.844644 35.14188,65.707458 6.5632786,66.206041 27.759567,47.076213 11.876549,21.554472 40.821275,31.583757 Z"
     fill="#1a472a"
     stroke="#0e2b18"
     stroke-width="1"
     stroke-linejoin="round"
     transform="rotate(5,50,50)"
     id="path5"
     sodipodi:nodetypes="ccccccccccccc"
     style="stroke:none" />
  <path
     d="M 50,12 58,35 86.444638,31.712922 70,48 91.701523,51.789027 60.127173,65.986217 62.047618,89.826171 43.270107,72.674952 20.316374,78.040461 23.620933,52.797335 4.3870163,41.086333 40.821275,31.583757 Z"
     fill="#1a472a"
     stroke="#0e2b18"
     stroke-width="1"
     stroke-linejoin="round"
     transform="rotate(5,50,50)"
     id="path2"
     sodipodi:nodetypes="ccccccccccccc"
     style="stroke:none" />
  <path
     d="M 50,22 60,40 82,38 68,52 80,72 50,68 20,72 32,52 19.149841,35.800796 40,40 Z"
     fill="#2e7d32"
     stroke="#1b5e20"
     stroke-width="1"
     stroke-linejoin="round"
     transform="rotate(20,50,50)"
     id="path3"
     sodipodi:nodetypes="ccccccccccc"
     style="stroke:none" />
  <path
     d="M 50,32 58,45 75,42 62,55 69.71853,72.678564 50.077896,60.8873 31.758194,68.911777 38,55 25,42 42,45 Z"
     fill="#4caf50"
     stroke="#388e3c"
     stroke-width="1"
     stroke-linejoin="round"
     transform="rotate(-10,50,50)"
     id="path4"
     sodipodi:nodetypes="ccccccccccc"
     style="stroke:none" />
  <circle
     cx="50"
     cy="50"
     r="5"
     fill="#81c784"
     id="circle4" />
</svg>
