<?xml version="1.0" encoding="UTF-8" standalone="no"?>
<svg
   width="100"
   height="100"
   viewBox="0 0 100 100"
   version="1.1"
   id="svg7"
   sodipodi:docname="pflugfahrer1.svg"
   inkscape:version="1.3.2 (091e20e, 2023-11-25, custom)"
   xmlns:inkscape="http://www.inkscape.org/namespaces/inkscape"
   xmlns:sodipodi="http://sodipodi.sourceforge.net/DTD/sodipodi-0.dtd"
   xmlns="http://www.w3.org/2000/svg"
   xmlns:svg="http://www.w3.org/2000/svg">
  <defs
     id="defs7" />
  <sodipodi:namedview
     id="namedview7"
     pagecolor="#ffffff"
     bordercolor="#000000"
     borderopacity="0.25"
     inkscape:showpageshadow="2"
     inkscape:pageopacity="0.0"
     inkscape:pagecheckerboard="0"
     inkscape:deskcolor="#d1d1d1"
     inkscape:zoom="12.55"
     inkscape:cx="50.039841"
     inkscape:cy="50"
     inkscape:window-width="2560"
     inkscape:window-height="1511"
     inkscape:window-x="-9"
     inkscape:window-y="-9"
     inkscape:window-maximized="1"
     inkscape:current-layer="svg7" />
  <rect
     x="37.023964"
     y="35.509697"
     width="12"
     height="72"
     rx="5"
     fill="#81ae98"
     transform="rotate(-25)"
     id="rect1" />
  <rect
     x="41.606819"
     y="-6.7521315"
     width="12"
     height="72"
     rx="5"
     fill="#81ae98"
     transform="rotate(25)"
     id="rect2" />
  <rect
     x="29.947439"
     y="34.780109"
     width="40.105122"
     height="30.439781"
     rx="12.031537"
     fill="#3399ff"
     stroke="#0056b3"
     stroke-width="1.89488"
     id="rect3"
     style="stroke:#544bb3;stroke-opacity:1;fill:#826dff;fill-opacity:1" />
  <circle
     cx="50"
     cy="50"
     r="14"
     fill="#808080"
     id="circle3"
     style="fill:#cccccc" />
  <rect
     x="38"
     y="42"
     width="24"
     height="10"
     rx="3"
     fill="#333"
     id="rect4" />
  <rect
     x="40"
     y="44"
     width="20"
     height="6"
     rx="2"
     fill="#87ceeb"
     id="rect5" />
  <circle
     cx="28"
     cy="50"
     r="7"
     fill="#3399ff"
     id="circle6" />
  <circle
     cx="72.856575"
     cy="42.936256"
     r="5.3266931"
     fill="#3399ff"
     id="circle7-3-1"
     style="fill:#333333;stroke-width:0.760956;stroke:none" />
  <circle
     cx="72"
     cy="50"
     r="7"
     fill="#3399ff"
     id="circle7" />
  <circle
     cx="72.398407"
     cy="46.840637"
     r="7"
     fill="#3399ff"
     id="circle7-3" />
  <circle
     cx="27.282869"
     cy="43.219124"
     r="5.0876493"
     fill="#3399ff"
     id="circle7-3-1-9-3"
     style="fill:#333333;stroke-width:0.726807;stroke:none" />
  <circle
     cx="27.537849"
     cy="47.868526"
     r="7"
     fill="#3399ff"
     id="circle7-3-1-9" />
  <path
     style="fill:#826dff;fill-opacity:1;stroke:#544bb3;stroke-width:0.0710732;stroke-linecap:round;stroke-linejoin:round;stroke-opacity:1;paint-order:stroke fill markers"
     d="m 26.698432,56.845502 c -0.667894,-0.131 -1.566917,-0.473694 -2.160106,-0.823398 -1.898546,-1.119258 -3.065111,-2.867871 -3.459405,-5.185451 -0.0671,-0.394422 -0.198227,-0.986055 -0.291385,-1.314741 -0.241444,-0.851876 -0.244849,-2.32468 -0.0076,-3.283606 1.169417,-4.726449 6.66981,-6.835578 10.69416,-4.100681 0.531849,0.361438 1.32698,1.144604 1.712851,1.687076 0.661537,0.930017 1.048532,1.903386 1.267196,3.187251 0.05971,0.350598 0.18942,0.924303 0.28824,1.274901 0.249474,0.885096 0.256045,2.506428 0.01379,3.402268 -0.360517,1.333155 -1.008202,2.413352 -2.027714,3.381789 -0.943482,0.896216 -2.047984,1.472984 -3.342006,1.74519 -0.59985,0.126183 -2.110363,0.142705 -2.688026,0.0294 z"
     id="path7" />
  <path
     style="fill:#826dff;fill-opacity:1;stroke:none;stroke-width:0;stroke-linecap:round;stroke-linejoin:round;stroke-opacity:1;paint-order:stroke fill markers;stroke-dasharray:none"
     d="m 70.55556,56.815465 c -1.272123,-0.292075 -2.367548,-0.873992 -3.284024,-1.744555 -1.020379,-0.96926 -1.669683,-2.047432 -2.022137,-3.357763 -0.244882,-0.910404 -0.243566,-2.525074 0.0028,-3.426294 0.120106,-0.43937 0.183234,-0.934571 0.203156,-1.593626 0.05825,-1.927187 0.812842,-3.642411 2.145459,-4.876761 3.920014,-3.630949 10.123656,-1.865147 11.534362,3.283136 0.247704,0.903982 0.25338,2.507979 0.01226,3.466135 -0.104144,0.413853 -0.186133,1.049203 -0.210791,1.633466 -0.127233,3.014686 -1.99193,5.494622 -4.833055,6.427674 -0.681537,0.223823 -0.87211,0.251101 -1.912351,0.27373 -0.783305,0.01704 -1.310051,-0.01038 -1.635675,-0.08514 z"
     id="path8" />
</svg>
