<svg xmlns="http://www.w3.org/2000/svg" width="100" height="100" viewBox="0 0 100 100"><ellipse cx="50" cy="55" rx="35" ry="12" fill="rgba(0,0,0,0.2)"/><path d="M 5 38 Q 50 34 95 38 L 98 40 Q 102 50 98 60 L 95 62 Q 50 66 5 62 L 2 60 Q -2 50 2 40 Z" fill="#81ae98" stroke="#5a7a6a" stroke-width="1"/><rect x="15" y="40" width="12" height="20" rx="4" fill="#222"/><rect x="73" y="40" width="12" height="20" rx="4" fill="#222"/><ellipse cx="50" cy="50" rx="22" ry="14" fill="#826dff" stroke="#544bb3" stroke-width="2"/><circle cx="50" cy="50" r="14" fill="#808080"/><rect x="38" y="38" width="24" height="8" rx="3" fill="#333"/><rect x="40" y="39" width="20" height="6" rx="2" fill="#87ceeb"/><path d="M 28 50 L 15 48" stroke="#826dff" stroke-width="10" stroke-linecap="round" fill="none"/><path d="M 72 50 L 85 48" stroke="#826dff" stroke-width="10" stroke-linecap="round" fill="none"/><circle cx="15" cy="48" r="6" fill="#111"/><circle cx="85" cy="48" r="6" fill="#111"/></svg>
